<?xml version="1.0" encoding="utf-8"?>
<!-- Generator: Adobe Illustrator 16.0.3, SVG Export Plug-In . SVG Version: 6.00 Build 0)  -->
<!DOCTYPE svg PUBLIC "-//W3C//DTD SVG 1.1//EN" "http://www.w3.org/Graphics/SVG/1.1/DTD/svg11.dtd">
<svg version="1.1" id="Layer_1" xmlns="http://www.w3.org/2000/svg" xmlns:xlink="http://www.w3.org/1999/xlink" x="0px" y="0px"
	 width="1000px" height="1000px" viewBox="0.5 792.5 1000 1000" enable-background="new 0.5 792.5 1000 1000" xml:space="preserve">
<path fill="#E42313" d="M1000.5,1542.5c0,138.071-111.929,250-250,250h-500c-138.071,0-250-111.929-250-250v-500
	c0-138.071,111.929-250,250-250h500c138.071,0,250,111.929,250,250V1542.5z"/>
<g>
	<path fill="#FFFFFF" d="M315.043,1303.529c0-8.986,8.987-11.438,13.89-11.438h165.851c5.719,0,10.621,4.901,10.621,9.804v93.955
		c0,3.268-0.817,6.536-3.269,6.536h-13.889c-4.902,0-5.719,4.085-5.719,9.804c0,79.249-47.386,188.727-173.204,188.727
		c-120.098,0-183.824-84.968-183.824-266.342v-95.589c0-151.962,49.837-254.903,187.093-254.903c31.862,0,169.936,0,169.936,228.76
		c0,5.719-2.451,10.621-8.17,10.621L326.481,1230c-5.719,0-11.438-5.72-11.438-13.89v-46.568c0-7.354-6.535-8.987-13.072-8.987
		c-7.353,0-13.071,5.719-13.071,18.791v224.675c0,25.327,8.169,35.948,18.791,35.948c8.987,0,17.974-4.902,17.974-24.511v-12.255
		c0-2.451-0.816-4.901-3.268-4.901h-4.085c-1.634,0-3.269-1.635-3.269-4.902V1303.529z"/>
	<path fill="#FFFFFF" d="M740.695,1183.431c-4.902,0-8.17-2.451-9.804-8.987c-4.902-19.607-13.072-29.412-24.51-29.412
		c-8.17,0-12.255,6.536-12.255,14.706c0,26.145,38.398,55.557,87.418,89.054c53.105,35.947,93.139,94.771,93.139,155.229
		c0,109.478-65.36,196.896-172.387,196.896c-124.185,0-181.374-89.87-181.374-220.59c0-4.085,3.268-8.17,9.804-8.17l112.746-5.719
		c5.719,0,8.987,3.268,9.804,10.621c3.269,32.68,17.157,67.811,36.766,67.811c11.438,0,18.79-7.353,18.79-26.144
		c0-19.608-45.751-55.557-100.49-99.674c-54.739-44.118-81.7-105.394-81.7-160.949c0-83.334,62.092-174.021,171.57-174.021
		c109.478,0,177.288,85.785,177.288,183.008c0,5.719-3.268,10.621-9.804,10.621L740.695,1183.431z"/>
</g>
</svg>
