<?xml version="1.0" encoding="utf-8"?>
<!-- Generator: Adobe Illustrator 16.0.3, SVG Export Plug-In . SVG Version: 6.00 Build 0)  -->
<!DOCTYPE svg PUBLIC "-//W3C//DTD SVG 1.1//EN" "http://www.w3.org/Graphics/SVG/1.1/DTD/svg11.dtd">
<svg version="1.1" id="Layer_1" xmlns="http://www.w3.org/2000/svg" xmlns:xlink="http://www.w3.org/1999/xlink" x="0px" y="0px"
	 width="1000px" height="1000px" viewBox="0.5 792.5 1000 1000" enable-background="new 0.5 792.5 1000 1000" xml:space="preserve">
<path fill="#FFFFFF" d="M500.5,1042.5c-207.129,0-375,111.914-375,250s167.871,250,375,250c207.128,0,375-111.914,375-250
	S707.628,1042.5,500.5,1042.5z M686.242,1282.832c-3.662,5.859-12.158,9.668-21.68,9.668h-93.75v93.75
	c0,17.256-20.991,31.25-46.875,31.25h-46.875c-25.884,0-46.875-13.994-46.875-31.25v-93.75h-93.75
	c-9.521,0-18.018-3.809-21.68-9.668s-1.611-12.5,5.127-16.992l164.063-109.375c9.152-6.102,23.993-6.102,33.134,0l164.063,109.375
	C687.853,1270.332,689.905,1276.973,686.242,1282.832z"/>
</svg>
