<?xml version="1.0" encoding="utf-8"?>
<!-- Generator: Adobe Illustrator 16.0.3, SVG Export Plug-In . SVG Version: 6.00 Build 0)  -->
<!DOCTYPE svg PUBLIC "-//W3C//DTD SVG 1.1//EN" "http://www.w3.org/Graphics/SVG/1.1/DTD/svg11.dtd">
<svg version="1.1" id="Layer_1" xmlns="http://www.w3.org/2000/svg" xmlns:xlink="http://www.w3.org/1999/xlink" x="0px" y="0px"
	 width="1000px" height="1000px" viewBox="0 0 1000 1000" enable-background="new 0 0 1000 1000" xml:space="preserve">
<path d="M167.318,53.817c20.043,0,37.298,14.273,41.133,34.005l2.615,21.769h733.239c35.381,0,63.615,35.293,53.683,70.866
	l-94.116,334.708c-6.797,24.051-28.758,40.609-53.684,40.609H297.514l16.034,83.658h536.988c23.18,0,41.83,18.65,41.83,41.83
	s-18.65,41.828-41.83,41.828H277.295c-18.475,0-35.729-14.291-39.563-33.984L132.705,137.477H41.83
	C18.737,137.477,0,118.741,0,95.647c0-23.093,18.736-41.829,41.83-41.829L167.318,53.817L167.318,53.817z M223.091,862.523
	c0-46.188,37.473-83.658,83.66-83.658c46.188,0,83.659,37.473,83.659,83.658c0,46.188-37.473,83.66-83.659,83.66
	C260.564,946.184,223.091,908.711,223.091,862.523z M892.366,862.523c0,46.188-37.475,83.66-83.659,83.66
	c-46.188,0-83.659-37.473-83.659-83.66s37.472-83.658,83.659-83.658C854.893,778.865,892.366,816.338,892.366,862.523z"/>
</svg>
