<?xml version="1.0" encoding="utf-8"?>
<!-- Generator: Adobe Illustrator 16.0.3, SVG Export Plug-In . SVG Version: 6.00 Build 0)  -->
<!DOCTYPE svg PUBLIC "-//W3C//DTD SVG 1.1//EN" "http://www.w3.org/Graphics/SVG/1.1/DTD/svg11.dtd">
<svg version="1.1" id="Layer_1" xmlns="http://www.w3.org/2000/svg" xmlns:xlink="http://www.w3.org/1999/xlink" x="0px" y="0px"
	 width="1000px" height="1000px" viewBox="0 0 1000 1000" enable-background="new 0 0 1000 1000" xml:space="preserve">
<path d="M673.242,465.82L391.797,200.195c-13.474-12.754-33.591-16.27-50.781-8.888c-17.188,7.521-28.318,24.315-28.318,43.068V375
	H62.539C27.988,375,0,402.93,0,437.5v125C0,597.031,27.988,625,62.539,625h250.194v140.625c0,18.706,11.146,35.645,28.34,43.067
	c17.195,7.383,37.168,3.874,50.781-8.971l281.447-265.625C691.992,516.406,691.992,483.594,673.242,465.82z M812.5,62.5h-125
	c-34.512,0-62.5,27.988-62.5,62.5s27.988,62.5,62.5,62.5h125c34.512,0,62.5,27.988,62.5,62.5v500c0,34.512-27.988,62.5-62.5,62.5
	h-125c-34.512,0-62.5,27.988-62.5,62.5s27.988,62.5,62.5,62.5h125c103.554,0,187.5-83.946,187.5-187.5V250
	C1000,146.447,916.016,62.5,812.5,62.5z"/>
</svg>
