<?xml version="1.0" encoding="utf-8"?>
<!-- Generator: Adobe Illustrator 16.0.3, SVG Export Plug-In . SVG Version: 6.00 Build 0)  -->
<!DOCTYPE svg PUBLIC "-//W3C//DTD SVG 1.1//EN" "http://www.w3.org/Graphics/SVG/1.1/DTD/svg11.dtd">
<svg version="1.1" id="Layer_1" xmlns="http://www.w3.org/2000/svg" xmlns:xlink="http://www.w3.org/1999/xlink" x="0px" y="0px"
	 width="1000px" height="1000px" viewBox="0 0 1000 1000" enable-background="new 0 0 1000 1000" xml:space="preserve">
<path fill="#FFFFFF" d="M674.59,200h-49.883c-41.325,0-74.824,33.498-74.824,73.421v448.946c0,41.325,33.499,74.824,74.824,74.824
	l49.883,2.806c41.325,0,74.825-33.499,74.825-74.824V276.226C749.415,234.901,715.899,200,674.59,200z M375.292,200h-49.883
	c-41.325,0-74.824,33.498-74.824,74.824v448.946c0,42.715,33.499,76.229,74.824,76.229h49.883c41.325,0,74.825-33.499,74.825-74.824
	V276.229C450.117,234.901,416.602,200,375.292,200z"/>
</svg>
