<?xml version="1.0" encoding="utf-8"?>
<!-- Generator: Adobe Illustrator 16.0.3, SVG Export Plug-In . SVG Version: 6.00 Build 0)  -->
<!DOCTYPE svg PUBLIC "-//W3C//DTD SVG 1.1//EN" "http://www.w3.org/Graphics/SVG/1.1/DTD/svg11.dtd">
<svg version="1.1" id="Layer_1" xmlns="http://www.w3.org/2000/svg" xmlns:xlink="http://www.w3.org/1999/xlink" x="0px" y="0px"
	 width="1000px" height="1000px" viewBox="0.5 792.5 1000 1000" enable-background="new 0.5 792.5 1000 1000" xml:space="preserve">
<path fill="#FFFFFF" d="M786.614,1247.276c-5.378,0.689-10.894,1.103-16.684,1.103c-35.848,0-67.836-15.718-89.758-39.984
	c-21.923,24.267-53.91,39.984-89.896,39.984c-35.985,0-67.974-15.718-89.896-39.984c-21.923,24.267-53.772,39.984-89.896,39.984
	c-35.849,0-67.835-15.718-89.758-39.984c-21.923,24.267-53.91,39.984-89.951,39.984c-5.598,0-11.237-0.413-16.71-1.103
	c-76.273-10.204-112.364-100.099-71.572-164.626l79.045-125.013c7.032-11.239,19.592-18.104,33.008-18.104h491.946
	c13.373,0,25.92,6.863,32.952,18.104l79.003,125.013C899.397,1147.315,863.136,1237.072,786.614,1247.276L786.614,1247.276z
	 M792.404,1290.983c4.688-0.689,11.444-1.792,16.96-3.171v269.412c0,48.67-39.571,88.241-88.241,88.241H279.914
	c-48.726,0-88.241-39.571-88.241-88.241v-269.412c5.335,1.379,10.836,2.481,16.503,3.171h0.166
	c7.253,0.966,14.808,1.517,22.432,1.517c17.152,0,33.697-2.619,49.14-7.445v183.929h441.208v-183.79
	c15.441,4.688,31.849,7.307,48.808,7.307C777.652,1292.5,785.097,1291.949,792.404,1290.983L792.404,1290.983z"/>
</svg>
