<?xml version="1.0" encoding="utf-8"?>
<!-- Generator: Adobe Illustrator 16.0.3, SVG Export Plug-In . SVG Version: 6.00 Build 0)  -->
<!DOCTYPE svg PUBLIC "-//W3C//DTD SVG 1.1//EN" "http://www.w3.org/Graphics/SVG/1.1/DTD/svg11.dtd">
<svg version="1.1" id="Layer_1" xmlns="http://www.w3.org/2000/svg" xmlns:xlink="http://www.w3.org/1999/xlink" x="0px" y="0px"
	 width="1000px" height="1000px" viewBox="0.5 792.5 1000 1000" enable-background="new 0.5 792.5 1000 1000" xml:space="preserve">
<path fill="#FFFFFF" d="M853.412,1539.543c29.294,29.294,29.294,76.752,0,106.046c-14.531,14.647-33.748,21.912-52.965,21.912
	s-38.388-7.323-53.013-21.971l-246.964-246.836l-246.942,246.776c-14.647,14.766-33.841,22.03-53.034,22.03
	c-19.194,0-38.364-7.265-53.023-22.03c-29.294-29.295-29.294-76.752,0-106.047l247.011-247.013l-247.011-246.895
	c-29.294-29.295-29.294-76.752,0-106.047c29.295-29.294,76.751-29.294,106.046,0l246.954,247.132l247.012-247.014
	c29.294-29.294,76.752-29.294,106.046,0c29.295,29.295,29.295,76.752,0,106.047l-247.011,247.014L853.412,1539.543z"/>
</svg>
